{"glyphs":{"A":{"ha":957,"x_min":0,"x_max":0,"o":"m 171 0 b 0 256 171 165 126 256 l 0 925 b 447 1119 0 1074 158 1119 b 894 925 736 1119 894 1074 l 894 256 b 724 0 768 256 724 165 l 700 0 l 700 488 b 447 671 700 629 642 671 b 194 488 253 671 194 629 l 194 0 m 194 694 l 700 694 l 700 925 b 447 1100 700 1057 663 1100 b 194 925 232 1100 194 1057 "},"Ä":{"ha":936,"x_min":0,"x_max":0,"o":"m 206 0 b 35 256 206 165 161 256 l 35 913 b 482 1111 35 1065 193 1111 b 929 913 771 1111 929 1065 l 929 256 b 758 0 803 256 758 165 l 735 0 l 735 488 b 482 671 735 629 676 671 b 229 488 288 671 229 629 l 229 0 m 229 694 l 735 694 l 735 913 b 482 1083 735 1040 697 1083 b 229 913 267 1083 229 1040 m 350 790 b 258 882 299 790 258 831 b 350 972 258 932 299 972 b 440 882 400 972 440 932 b 350 790 440 831 400 790 m 614 790 b 522 882 563 790 522 831 b 614 972 522 932 564 972 b 704 882 664 972 704 932 b 614 790 704 831 664 790 "},"B":{"ha":1029,"x_min":0,"x_max":0,"o":"m 478 -15 b 271 43 415 -15 328 1 l 271 0 l 247 0 b 76 240 247 181 203 240 l 76 871 b 247 1111 203 871 247 931 l 589 1111 b 1008 913 850 1111 1008 1065 l 1008 733 b 790 549 1008 625 929 571 b 1008 363 929 525 1008 471 l 1008 183 b 589 -15 1008 31 850 -15 m 589 563 b 814 733 776 563 814 606 l 814 913 b 589 1088 814 1044 776 1088 l 478 1088 b 271 921 351 1088 271 1046 l 269 732 b 478 563 271 606 350 563 m 589 13 b 814 183 776 13 814 42 l 814 363 b 589 533 814 490 776 533 l 478 533 b 269 344 343 533 269 486 l 269 201 b 478 13 269 60 343 13 "},"C":{"ha":1086,"x_min":0,"x_max":0,"o":"m 563 -11 b 63 240 300 -11 63 81 l 63 915 b 563 1122 63 1054 300 1122 b 1051 896 824 1122 1051 1018 l 1051 656 l 1028 656 b 857 896 1028 836 983 896 b 563 1101 857 1036 769 1101 b 257 915 350 1101 257 1061 l 257 240 b 563 10 257 74 350 10 b 857 215 769 10 857 75 b 1028 456 983 215 1028 275 l 1051 456 l 1051 215 b 563 -11 1051 93 824 -11 "},"D":{"ha":1058,"x_min":0,"x_max":0,"o":"m 63 872 b 233 1111 229 872 233 911 l 257 1111 l 257 1067 b 465 1122 314 1108 354 1122 l 576 1122 b 996 925 838 1122 996 1078 l 996 183 b 576 -14 996 49 815 -14 l 465 -14 b 257 42 351 -14 314 0 l 257 -7 l 233 -7 b 63 240 233 158 189 240 m 257 201 b 465 10 257 58 318 10 l 576 10 b 801 183 764 10 801 53 l 801 925 b 576 1100 801 1057 764 1100 l 465 1100 b 257 907 318 1100 257 1053 "},"E":{"ha":1010,"x_min":0,"x_max":0,"o":"m 403 -15 b 194 42 289 -15 233 -8 b 0 240 124 133 126 240 l 0 868 b 194 1067 126 868 124 975 b 403 1124 233 1117 289 1124 l 556 1124 b 947 925 794 1124 947 1060 l 947 685 l 924 685 b 753 925 924 865 879 925 b 528 1097 753 1054 715 1097 l 403 1097 b 194 908 256 1097 194 1051 l 194 567 l 372 567 b 543 807 514 567 543 640 l 567 807 l 567 303 l 543 303 b 372 543 543 469 514 543 l 194 543 l 194 201 b 403 11 194 58 256 11 l 528 11 b 753 183 715 11 753 54 b 924 424 879 183 924 243 l 947 424 l 947 183 b 556 -15 947 49 794 -15 "},"F":{"ha":981,"x_min":0,"x_max":0,"o":"m 207 0 b 36 240 207 181 163 240 l 36 858 b 300 1122 35 1026 129 1122 l 526 1122 b 946 924 765 1122 946 1058 l 946 683 l 922 683 b 751 924 922 864 878 924 b 526 1094 751 1051 714 1094 b 231 924 303 1094 231 1065 l 231 565 l 436 565 b 607 806 578 565 607 639 l 631 806 l 631 301 l 607 301 b 436 542 607 468 578 542 l 231 542 l 231 0 "},"G":{"ha":1114,"x_min":0,"x_max":0,"o":"m 563 -11 b 63 240 300 -11 63 81 l 63 915 b 563 1122 63 1054 300 1122 b 1051 896 824 1122 1051 1018 l 1051 656 l 1028 656 b 857 896 1028 836 983 896 b 563 1101 857 1036 769 1101 b 257 915 350 1101 257 1061 l 257 240 b 563 10 257 74 350 10 b 857 215 769 10 857 75 b 1028 456 983 215 1028 275 l 1028 594 l 900 594 b 660 424 733 594 660 565 l 660 354 l 465 354 b 729 618 464 522 558 618 l 1051 618 l 1051 215 b 563 -11 1051 93 824 -11 "},"H":{"ha":1114,"x_min":0,"x_max":0,"o":"m 219 0 b 49 240 219 181 175 240 l 49 871 b 219 1111 175 871 219 931 l 243 1111 l 243 694 l 857 694 l 857 1111 l 881 1111 b 1051 871 881 931 925 871 l 1051 240 b 881 0 925 240 881 181 l 857 0 l 857 488 b 604 671 857 629 799 671 l 496 671 b 243 488 301 671 243 629 l 243 0 "},"I":{"ha":292,"x_min":0,"x_max":0,"o":"m 86 1111 b 257 886 86 946 131 886 l 257 0 l 233 0 b 63 225 233 163 189 225 l 63 1111 "},"J":{"ha":435,"x_min":0,"x_max":0,"o":"m 372 -14 b 108 -278 374 -182 279 -278 l -62 -278 l -62 -254 b 178 -83 104 -254 178 -225 l 178 1111 l 201 1111 b 372 871 201 931 246 871 "},"K":{"ha":974,"x_min":0,"x_max":0,"o":"m 206 0 b 35 240 206 181 161 240 l 35 872 b 206 1111 161 872 206 931 l 229 1111 l 229 694 l 464 694 b 689 871 651 694 689 739 l 689 1111 l 713 1111 b 883 871 713 931 757 871 b 665 681 883 761 804 706 b 883 496 804 658 883 604 l 883 256 b 713 0 757 256 713 165 l 689 0 l 689 496 b 464 667 689 624 651 667 l 229 667 l 229 0 "},"L":{"ha":946,"x_min":0,"x_max":0,"o":"m 717 183 b 492 13 717 56 693 13 l 464 13 b 256 201 329 13 256 60 l 257 1111 l 233 1111 b 63 871 233 931 189 871 l 63 240 b 257 43 189 240 146 126 b 464 -15 313 1 401 -15 l 492 -15 b 911 183 767 -15 911 31 "},"M":{"ha":1460,"x_min":0,"x_max":0,"o":"m 1175 0 l 1175 925 b 950 1096 1175 1053 1117 1096 l 922 1096 b 714 925 769 1096 714 1053 l 714 194 b 954 24 714 53 788 24 l 954 0 l 450 0 l 450 24 b 690 194 617 24 690 53 l 690 925 b 482 1096 690 1053 635 1096 l 454 1096 b 229 925 288 1096 229 1053 l 229 0 l 206 0 b 35 225 206 151 176 225 l 35 925 b 454 1124 35 1060 232 1124 l 482 1124 b 703 1013 626 1124 682 1081 b 922 1124 722 1081 778 1124 l 950 1124 b 1369 925 1172 1124 1369 1060 l 1369 225 b 1199 0 1228 225 1199 151 "},"N":{"ha":1111,"x_min":0,"x_max":0,"o":"m 115 917 b -125 1088 115 1058 42 1088 l -125 1111 l 310 1111 l 310 1069 b 518 1126 367 1111 456 1126 l 629 1126 b 1049 928 868 1126 1049 1063 l 1049 240 b 878 0 907 240 878 167 l 854 0 l 853 928 b 628 1099 853 1056 815 1099 l 517 1099 b 310 910 382 1099 310 1039 l 310 0 l 286 0 b 115 240 286 167 257 240 "},"O":{"ha":1115,"x_min":0,"x_max":0,"o":"m 533 -12 b 0 240 206 -12 0 81 l 0 918 b 533 1124 0 1064 206 1124 b 1067 918 856 1124 1067 1064 l 1067 240 b 533 -12 1067 81 856 -12 m 533 10 b 872 240 788 10 872 88 l 872 918 b 533 1101 872 1057 788 1101 b 194 918 258 1101 194 1057 l 194 240 b 533 10 194 88 258 10 "},"Ö":{"ha":1150,"x_min":0,"x_max":0,"o":"m 568 -12 b 35 240 240 -12 35 81 l 35 918 b 568 1124 35 1064 240 1124 b 1101 918 890 1124 1101 1064 l 1101 240 b 568 -12 1101 81 890 -12 m 568 10 b 907 240 822 10 907 88 l 907 918 b 568 1101 907 1057 822 1101 b 229 918 293 1101 229 1057 l 229 240 b 568 10 229 88 293 10 m 436 790 b 344 882 385 790 344 831 b 436 972 344 932 385 972 b 526 882 486 972 526 932 b 436 790 526 831 486 790 m 700 790 b 608 882 649 790 608 831 b 700 972 608 932 650 972 b 790 882 750 972 790 932 b 700 790 790 831 750 790 "},"P":{"ha":1003,"x_min":0,"x_max":0,"o":"m 257 1069 b 465 1126 314 1111 403 1126 l 549 1126 b 968 928 788 1126 968 1063 l 968 588 b 549 389 968 435 810 389 l 465 389 b 257 446 403 389 314 404 l 257 0 l 233 0 b 63 278 233 190 204 278 l 63 856 b 233 1111 189 856 233 946 l 257 1111 m 257 606 b 465 417 257 464 331 417 l 549 417 b 774 588 736 417 774 460 l 774 928 b 549 1099 774 1056 736 1099 l 465 1099 b 257 910 331 1099 257 1053 "},"Q":{"ha":1192,"x_min":0,"x_max":0,"o":"m 669 -278 b 499 -53 669 -115 625 -53 l 499 -10 b 63 240 228 7 63 97 l 63 918 b 596 1124 63 1064 268 1124 b 1129 918 918 1124 1129 1064 l 1129 240 b 693 -10 1129 97 960 8 l 693 -278 m 499 292 l 522 292 b 693 67 522 126 567 67 l 693 14 b 935 240 872 33 935 108 l 935 918 b 596 1101 935 1057 850 1101 b 257 918 321 1101 257 1057 l 257 240 b 499 14 257 107 306 32 "},"R":{"ha":1074,"x_min":0,"x_max":0,"o":"m 1039 493 l 549 493 b 1038 267 810 493 1038 389 l 1038 0 l 1014 0 b 843 267 1014 194 969 267 b 549 472 843 407 756 472 b 243 304 344 472 251 435 l 243 0 l 219 0 b 49 225 219 151 190 225 l 49 292 l 50 871 b 550 1122 50 1031 288 1122 b 1039 896 811 1122 1039 1018 m 1015 517 l 1015 656 b 844 896 1015 836 971 896 b 550 1101 844 1036 757 1101 b 244 871 338 1101 244 1038 l 244 688 b 485 517 244 546 318 517 "},"S":{"ha":1136,"x_min":0,"x_max":0,"o":"m 243 436 b 588 15 243 228 271 15 b 921 339 814 15 921 89 b 621 604 921 628 715 618 b 88 804 486 585 88 504 b 588 1126 88 979 311 1126 b 1076 767 876 1126 1076 960 l 882 767 b 588 1099 882 988 822 1099 b 282 804 361 1099 282 1010 b 572 618 282 607 476 606 b 1115 339 718 638 1115 707 b 588 -14 1115 106 882 -14 b 49 436 218 -14 49 249 "},"T":{"ha":1099,"x_min":0,"x_max":0,"o":"m 606 0 b 435 244 606 181 561 244 l 435 917 b 194 1088 435 1058 361 1088 b 24 847 53 1089 24 1015 l 0 847 l 0 1111 l 365 1111 b 532 1067 433 1111 489 1096 b 699 1111 575 1096 631 1111 l 1064 1111 l 1064 847 l 1040 847 b 869 1088 1040 1015 1011 1089 b 629 917 703 1088 629 1058 l 629 0 "},"U":{"ha":1003,"x_min":0,"x_max":0,"o":"m 35 871 b 206 1111 176 871 206 944 l 229 1111 l 229 181 b 454 10 229 53 288 10 l 565 10 b 774 181 718 10 774 58 l 774 1111 l 797 1111 b 968 871 797 944 826 871 l 968 183 b 565 -12 968 51 781 -12 l 454 -12 b 35 183 232 -12 35 49 "},"Ü":{"ha":833,"x_min":0,"x_max":0,"o":"m 35 871 b 206 1111 176 871 206 944 l 229 1111 l 229 183 b 454 13 229 56 288 13 l 565 13 b 774 183 718 13 774 61 l 774 1111 l 797 1111 b 968 871 797 944 826 871 l 968 183 b 565 -15 968 51 781 -15 l 454 -15 b 35 183 232 -15 35 49 m 369 790 b 278 882 318 790 278 831 b 369 972 278 932 318 972 b 460 882 419 972 460 932 b 369 790 460 831 419 790 m 633 790 b 542 882 582 790 542 831 b 633 972 542 932 583 972 b 724 882 683 972 724 932 b 633 790 724 831 683 790 "},"V":{"ha":1108,"x_min":0,"x_max":0,"o":"m 1143 1103 l 801 153 b 564 0 682 196 619 153 l 544 0 b 307 153 489 153 426 196 l -35 1103 l -12 1111 b 225 958 43 956 106 915 l 554 43 l 618 219 l 883 958 b 1121 1111 1003 915 1065 956 "},"W":{"ha":1390,"x_min":0,"x_max":0,"o":"m 1199 1111 b 1369 886 1199 960 1228 886 l 1369 183 b 950 -15 1369 49 1172 -15 l 922 -15 b 703 96 778 -15 722 28 b 482 -15 682 28 626 -15 l 454 -15 b 35 183 232 -15 35 49 l 35 886 b 206 1111 176 886 206 960 l 229 1111 l 229 183 b 454 13 229 56 288 13 l 482 13 b 690 183 635 13 690 56 l 690 500 b 450 671 690 642 617 671 l 450 694 l 954 694 l 954 671 b 714 500 788 671 714 642 l 714 183 b 922 13 714 56 769 13 l 950 13 b 1175 183 1117 13 1175 56 l 1175 1111 "},"X":{"ha":971,"x_min":0,"x_max":0,"o":"m 419 542 b 194 371 232 542 194 499 l 194 0 l 171 0 b 0 133 171 54 126 133 l 0 371 b 214 556 0 478 78 532 b 0 740 78 579 0 633 l 0 978 b 171 1111 126 978 171 1057 l 194 1111 l 194 740 b 419 569 194 613 232 569 l 503 569 b 728 740 690 569 728 613 l 728 1100 l 751 1100 b 922 965 751 1046 796 965 l 922 740 b 708 556 922 633 844 579 b 922 371 844 532 922 478 l 922 135 b 751 0 796 135 751 54 l 728 0 l 728 371 b 503 542 728 499 690 542 "},"Y":{"ha":989,"x_min":0,"x_max":0,"o":"m 240 0 l 240 24 b 481 186 407 24 481 53 l 481 393 l 442 393 b 35 592 219 393 35 457 l 35 871 b 206 1111 176 871 206 944 l 229 1111 l 229 592 b 442 421 229 464 275 421 l 551 421 b 760 592 704 421 760 469 l 760 1111 l 783 1111 b 954 871 783 944 813 871 l 954 592 b 551 393 954 460 767 393 l 508 393 l 508 186 b 749 24 508 53 582 24 l 749 0 "},"Z":{"ha":908,"x_min":0,"x_max":0,"o":"m 874 935 l 311 108 b 336 24 274 53 269 24 l 679 24 b 850 264 819 24 849 97 l 874 264 l 874 0 l 106 0 b 64 42 79 0 64 15 l 64 179 l 626 1003 b 600 1088 664 1058 667 1088 l 257 1088 b 86 847 117 1088 88 1014 l 63 847 l 63 1111 l 832 1111 b 874 1069 858 1111 874 1096 "},"a":{"ha":1063,"x_min":0,"x_max":0,"o":"m 299 0 b 35 197 151 0 35 68 b 326 410 35 335 138 410 l 690 410 l 690 463 b 468 672 690 618 621 672 b 229 451 301 672 229 583 l 35 451 b 468 694 35 569 249 694 b 885 463 689 694 885 607 l 885 194 b 1125 24 885 53 958 24 l 1125 0 l 954 0 b 793 40 889 0 835 14 b 621 0 747 14 688 0 m 469 24 b 690 194 613 24 690 53 l 690 386 l 469 386 b 229 215 303 386 229 357 l 229 194 b 469 24 229 53 303 24 "},"ä":{"ha":1090,"x_min":0,"x_max":0,"o":"m 364 790 b 272 882 313 790 272 831 b 364 972 272 932 313 972 b 454 882 414 972 454 932 b 364 790 454 831 414 790 m 628 790 b 536 882 576 790 536 831 b 628 972 536 932 576 972 b 718 882 678 972 718 932 b 628 790 718 831 678 790 m 326 0 b 63 197 179 0 63 68 b 354 410 63 335 165 410 l 718 410 l 718 463 b 496 672 718 618 649 672 b 257 451 329 672 257 583 l 63 451 b 496 694 63 569 276 694 b 913 463 717 694 913 607 l 913 194 b 1153 24 913 53 986 24 l 1153 0 l 982 0 b 821 40 917 0 863 14 b 649 0 775 14 715 0 m 497 24 b 718 194 640 24 718 53 l 718 386 l 497 386 b 257 215 331 386 257 357 l 257 194 b 497 24 257 53 331 24 "},"b":{"ha":1001,"x_min":0,"x_max":0,"o":"m 243 0 l 219 0 b 49 240 219 181 175 240 l 49 871 b 219 1111 175 871 219 931 l 243 1111 l 242 651 b 450 708 299 693 388 708 l 478 708 b 897 510 739 708 897 663 l 897 183 b 478 -15 897 31 739 -15 l 450 -15 b 243 43 388 -15 300 1 m 242 201 b 450 13 242 60 315 13 l 478 13 b 703 183 665 13 703 56 l 703 510 b 478 681 703 638 665 681 l 450 681 b 242 492 315 681 242 633 "},"c":{"ha":1114,"x_min":0,"x_max":0,"o":"m 229 500 b 535 686 229 646 322 686 b 829 481 742 686 829 621 l 1024 481 b 535 707 1024 603 796 707 b 35 500 272 707 35 639 l 35 240 b 535 -11 35 81 272 -11 b 1024 215 796 -11 1024 93 l 829 215 b 535 10 829 75 742 10 b 229 240 322 10 229 74 "},"d":{"ha":975,"x_min":0,"x_max":0,"o":"m 885 240 b 714 -7 758 240 714 158 l 690 -7 l 690 42 b 482 -15 633 0 596 -15 l 454 -15 b 35 183 215 -15 35 49 l 35 510 b 454 708 35 663 193 708 l 482 708 b 690 651 593 708 633 693 l 690 1111 l 714 1111 b 885 872 714 911 718 872 m 690 492 b 482 681 690 633 629 681 l 454 681 b 229 510 267 681 229 638 l 229 183 b 454 13 229 56 267 13 l 482 13 b 690 201 629 13 690 58 "},"e":{"ha":961,"x_min":0,"x_max":0,"o":"m 451 0 b 35 232 231 0 35 46 l 35 500 b 299 694 35 626 133 694 l 621 694 b 885 497 768 694 885 626 b 593 285 885 360 782 285 l 229 285 l 229 232 b 451 22 229 76 299 22 l 782 22 l 782 0 m 229 308 l 450 308 b 690 479 617 308 690 338 l 690 500 b 450 671 690 642 617 671 b 229 500 307 671 229 642 "},"f":{"ha":490,"x_min":0,"x_max":0,"o":"m 271 500 b 511 671 271 642 347 674 l 511 694 l 271 694 l 271 918 b 511 1089 271 1060 344 1089 l 511 1113 l 340 1113 b 76 849 169 1113 75 1017 l 76 240 b 247 0 203 240 247 181 l 271 0 "},"g":{"ha":989,"x_min":0,"x_max":0,"o":"m 35 -278 l 35 -83 l 58 -83 b 283 -254 58 -210 121 -254 l 450 -254 b 690 -83 617 -254 690 -225 l 690 43 b 482 -14 633 1 544 -14 l 454 -14 b 35 185 193 -14 35 32 l 35 510 b 454 708 35 644 215 708 l 482 708 b 690 651 544 708 633 693 l 690 694 l 714 694 b 885 439 714 529 758 439 l 885 -14 b 621 -278 886 -182 792 -278 m 690 492 b 482 681 690 635 617 681 l 454 681 b 229 510 267 681 229 638 l 229 185 b 454 14 229 57 267 14 l 482 14 b 690 203 617 14 690 61 "},"h":{"ha":988,"x_min":0,"x_max":0,"o":"m 229 490 b 436 681 229 632 301 681 l 464 681 b 689 510 651 681 689 638 l 689 0 l 713 0 b 883 256 713 165 757 256 l 883 510 b 464 708 883 663 725 708 l 436 708 b 229 651 374 708 286 693 l 229 1111 l 206 1111 b 35 872 206 931 161 872 l 35 240 b 206 0 161 240 206 181 l 229 0 "},"i":{"ha":424,"x_min":0,"x_max":0,"o":"m 257 561 b 165 653 206 561 165 601 b 257 743 165 703 206 743 b 347 653 307 743 347 703 b 257 561 347 601 307 561 m 86 694 b 257 469 86 529 131 469 l 257 0 l 233 0 b 63 225 233 163 189 225 l 63 694 "},"j":{"ha":490,"x_min":0,"x_max":0,"o":"m 400 543 b 308 635 349 543 308 583 b 400 725 308 685 349 725 b 490 635 450 725 490 685 b 400 543 490 583 450 543 m 400 -14 b 136 -278 401 -182 307 -278 l -35 -278 l -35 -254 b 206 -83 132 -254 206 -225 l 206 694 l 229 694 b 400 454 229 514 274 454 "},"k":{"ha":960,"x_min":0,"x_max":0,"o":"m 668 504 b 883 319 806 482 883 426 l 883 256 b 713 0 757 256 713 165 l 689 0 l 689 319 b 464 490 689 447 651 490 l 229 490 l 229 0 l 206 0 b 35 240 206 181 161 240 l 35 872 b 206 1111 161 872 206 931 l 229 1111 l 229 518 l 464 518 b 689 694 651 518 689 563 l 883 694 b 668 504 883 585 806 528 "},"l":{"ha":463,"x_min":0,"x_max":0,"o":"m 49 872 b 219 1113 175 872 219 932 l 243 1113 l 243 194 b 483 24 243 53 317 24 l 483 0 l 313 0 b 49 264 142 0 47 96 "},"m":{"ha":1474,"x_min":0,"x_max":0,"o":"m 1175 0 l 1175 511 b 950 682 1175 639 1117 682 l 922 682 b 714 511 769 682 714 639 l 714 194 b 954 24 714 53 788 24 l 954 0 l 450 0 l 450 24 b 690 194 617 24 690 53 l 690 511 b 482 682 690 639 635 682 l 454 682 b 229 511 288 682 229 639 l 229 0 l 206 0 b 35 225 206 151 176 225 l 35 511 b 454 710 35 646 232 710 l 482 710 b 703 599 626 710 682 667 b 922 710 722 667 778 710 l 950 710 b 1369 511 1172 710 1369 646 l 1369 225 b 1199 0 1228 225 1199 151 "},"n":{"ha":1194,"x_min":0,"x_max":0,"o":"m 233 500 b -7 671 233 642 160 671 l -7 694 l 428 694 l 428 653 b 636 710 485 694 574 710 l 664 710 b 1083 511 903 710 1083 646 l 1083 240 b 913 0 942 240 913 167 l 889 0 l 889 511 b 664 682 889 639 851 682 l 636 682 b 428 493 501 682 428 622 l 428 0 l 404 0 b 233 240 404 167 375 240 "},"o":{"ha":1219,"x_min":0,"x_max":0,"o":"m 568 -12 b 35 240 240 -12 35 81 l 35 500 b 568 706 35 646 240 706 b 1101 500 890 706 1101 646 l 1101 240 b 568 -12 1101 81 890 -12 m 568 10 b 907 240 822 10 907 88 l 907 500 b 568 683 907 639 822 683 b 229 500 293 683 229 639 l 229 240 b 568 10 229 88 293 10 "},"ö":{"ha":1226,"x_min":0,"x_max":0,"o":"m 464 790 b 372 882 413 790 372 831 b 464 972 372 932 413 972 b 554 882 514 972 554 932 b 464 790 554 831 514 790 m 728 790 b 636 882 676 790 636 831 b 728 972 636 932 678 972 b 818 882 778 972 818 932 b 728 790 818 831 778 790 m 596 -12 b 63 240 268 -12 63 81 l 63 500 b 596 706 63 646 268 706 b 1129 500 918 706 1129 646 l 1129 240 b 596 -12 1129 81 918 -12 m 596 10 b 935 240 850 10 935 88 l 935 500 b 596 683 935 639 850 683 b 257 500 321 683 257 639 l 257 240 b 596 10 257 88 321 10 "},"p":{"ha":885,"x_min":0,"x_max":0,"o":"m 194 653 b 403 710 251 694 340 710 l 431 710 b 850 511 669 710 850 646 l 850 199 b 431 0 850 46 692 0 l 403 0 b 194 57 340 0 251 15 l 194 -278 l 171 -278 b 0 0 171 -87 142 0 l 0 469 b 171 725 126 469 171 560 l 194 725 m 194 217 b 403 28 194 75 268 28 l 431 28 b 656 199 618 28 656 71 l 656 511 b 431 682 656 639 618 682 l 403 682 b 194 493 268 682 194 636 "},"q":{"ha":926,"x_min":0,"x_max":0,"o":"m 656 725 l 679 725 b 850 469 679 560 724 469 l 850 0 b 679 -278 708 0 679 -87 l 656 -278 l 656 57 b 447 0 599 15 510 0 l 419 0 b 0 199 158 0 0 46 l 0 511 b 419 710 0 646 181 710 l 447 710 b 656 653 510 710 599 694 m 656 493 b 447 682 656 636 582 682 l 419 682 b 194 511 232 682 194 639 l 194 199 b 419 28 194 71 232 28 l 447 28 b 656 217 582 28 656 75 "},"r":{"ha":476,"x_min":0,"x_max":0,"o":"m 35 225 b 206 0 161 225 206 163 l 229 0 l 229 500 b 469 671 229 642 303 671 l 469 694 l 206 694 b 35 456 206 528 176 456 "},"s":{"ha":1122,"x_min":0,"x_max":0,"o":"m 201 271 b 546 8 201 139 271 8 b 879 218 800 8 879 63 b 579 369 879 401 669 381 b 46 483 449 353 46 293 b 546 707 46 603 283 707 b 1035 481 807 707 1035 603 l 840 481 b 546 686 840 621 753 686 b 240 483 333 686 240 622 b 531 383 240 358 435 374 b 1074 218 676 399 1074 451 b 546 -14 1074 74 868 -14 b 7 271 218 -14 7 153 "},"ß":{"ha":974,"x_min":0,"x_max":0,"o":"m 464 -43 l 464 -71 l 575 -71 b 994 128 836 -71 994 -25 l 994 446 b 707 632 994 597 846 608 b 925 817 846 654 925 708 l 925 913 b 506 1111 925 1065 767 1111 l 418 1111 b 211 951 306 1111 249 1046 b 63 871 186 893 140 871 l 63 240 b 233 0 189 240 233 181 l 257 0 l 257 921 b 464 1088 257 1046 338 1088 l 506 1088 b 731 913 693 1088 731 1044 l 731 817 b 506 646 731 682 685 647 l 506 617 b 800 446 711 615 800 564 l 800 128 b 575 -43 800 -14 763 -43 "},"t":{"ha":588,"x_min":0,"x_max":0,"o":"m 271 488 b 511 671 271 629 344 671 l 511 694 l 271 694 l 271 1111 l 247 1111 b 76 871 247 944 218 871 l 76 264 b 340 0 76 93 169 0 l 511 0 l 511 24 b 271 194 344 24 271 53 "},"u":{"ha":954,"x_min":0,"x_max":0,"o":"m 35 454 b 206 694 176 454 206 528 l 229 694 l 229 183 b 454 13 229 56 288 13 l 482 13 b 690 183 635 13 690 61 l 690 694 l 714 694 b 885 454 714 528 743 454 l 885 183 b 482 -15 885 51 697 -15 l 454 -15 b 35 183 232 -15 35 49 "},"ü":{"ha":1028,"x_min":0,"x_max":0,"o":"m 349 790 b 257 882 297 790 257 831 b 349 972 257 932 297 972 b 439 882 399 972 439 932 b 349 790 439 831 399 790 m 613 790 b 521 882 561 790 521 831 b 613 972 521 932 561 972 b 703 882 663 972 703 932 b 613 790 703 831 663 790 m 49 454 b 219 694 190 454 219 528 l 243 694 l 243 183 b 468 13 243 56 301 13 l 496 13 b 704 183 649 13 704 61 l 704 694 l 728 694 b 899 454 728 528 757 454 l 899 183 b 496 -15 899 51 711 -15 l 468 -15 b 49 183 246 -15 49 49 "},"v":{"ha":851,"x_min":0,"x_max":0,"o":"m 865 686 l 674 153 b 436 0 554 196 492 153 l 417 0 b 179 153 361 153 299 196 l -14 686 l 8 694 b 246 542 64 539 126 499 l 426 43 l 490 219 l 606 542 b 843 694 725 499 788 539 "},"w":{"ha":1488,"x_min":0,"x_max":0,"o":"m 1199 694 b 1369 469 1199 543 1228 469 l 1369 183 b 950 -15 1369 49 1172 -15 l 922 -15 b 703 96 778 -15 722 28 b 482 -15 682 28 626 -15 l 454 -15 b 35 183 232 -15 35 49 l 35 469 b 206 694 176 469 206 543 l 229 694 l 229 183 b 454 13 229 56 288 13 l 482 13 b 690 183 635 13 690 56 l 690 500 b 450 671 690 642 617 671 l 450 694 l 954 694 l 954 671 b 714 500 788 671 714 642 l 714 183 b 922 13 714 56 769 13 l 950 13 b 1175 183 1117 13 1175 56 l 1175 694 "},"x":{"ha":908,"x_min":0,"x_max":0,"o":"m 874 532 b 660 347 874 425 796 371 b 874 163 796 324 874 269 l 874 135 b 703 0 747 135 703 54 l 679 0 l 679 163 b 454 333 679 290 642 333 b 229 163 267 333 229 290 l 229 0 l 206 0 b 35 133 206 54 161 133 l 35 163 b 249 347 35 269 113 324 b 35 532 113 371 35 425 l 35 561 b 206 694 161 561 206 640 l 229 694 l 229 532 b 454 361 229 404 267 361 b 679 532 642 361 679 404 l 679 694 l 703 694 b 874 560 703 640 747 560 "},"y":{"ha":961,"x_min":0,"x_max":0,"o":"m 194 694 l 194 185 b 419 14 194 57 232 14 l 447 14 b 656 203 582 14 656 61 l 656 694 l 679 694 b 850 439 679 529 724 439 l 850 -14 b 586 -278 851 -182 757 -278 l 0 -278 l 0 -254 l 415 -254 b 656 -83 582 -254 656 -225 l 656 43 b 447 -14 599 1 510 -14 l 419 -14 b 0 185 158 -14 0 32 l 0 439 b 171 694 126 439 171 529 "},"z":{"ha":1006,"x_min":0,"x_max":0,"o":"m 888 518 l 283 108 b 308 24 228 71 242 24 l 693 24 b 864 264 833 24 863 97 l 888 264 l 888 0 l 78 0 b 36 42 51 0 36 15 l 36 179 l 640 586 b 614 671 696 624 681 671 l 229 671 b 58 431 89 671 60 597 l 35 431 l 35 694 l 846 694 b 888 653 872 694 888 679 "}}}
